<svg id="Layer_1" data-name="Layer 1" xmlns="http://www.w3.org/2000/svg" viewBox="0 0 1920 1080"><defs><style>.cls-1{fill:#fefefe;}.cls-2{fill:#333332;}.cls-3{fill:#1a1a1a;}.cls-4{fill:#569490;}.cls-5{fill:#2b4a48;}.cls-6{fill:#1c1e1d;}.cls-7{fill:#79b7b0;}.cls-8{fill:#3c5b57;}.cls-9{fill:#3f6367;}.cls-10{fill:#323232;}.cls-11{fill:#1f3133;}.cls-12{fill:#66cbf3;}.cls-13{fill:#52a3c4;}.cls-14{fill:#191a1a;}.cls-15{fill:#9fd4b4;}.cls-16{fill:#b9e7f9;}.cls-17{fill:#edf8fd;}.cls-18{fill:#506a5a;}</style></defs><title>Artboard 1</title><path class="cls-1" d="M1171,541q0,103,.1,206c0,3.42-.68,4.1-4.1,4.09q-206-.17-412,0c-3.42,0-4.1-.67-4.09-4.09q.17-206,0-412c0-3.42.67-4.1,4.09-4.09q206,.16,412,0c3.42,0,4.1.67,4.1,4.09Q1170.91,438,1171,541Z"/><path class="cls-2" d="M772.69,419.82c.72-2.07,2.79-2.2,4.37-2.94q90.23-41.73,180.44-83.48a11.13,11.13,0,0,1,10.8.22q88.65,45.57,177.46,90.83c4.26,2.17,5.69,4.83,5.4,9.4q-3.51,54.33-6.78,108.69c-1.81,29.41-3.74,58.83-5.28,88.26-.34,6.42-2.38,10.56-8.17,14q-85.82,50.82-171.35,102.15c-3.05,1.82-6,3.48-9.52,1a31.44,31.44,0,0,0,1.35-10.34c0-28.63.82-57.29-.22-85.88-1.45-40.27,0-80.54-1.06-120.78,0-2.82,2.13-3.94,4.22-5q38.26-20.12,76.5-40.29c36.22-19.13,72.54-38.08,108.67-57.34-.09-2-1.76-2-2.8-2.53-37.55-18.78-74.78-38.2-112.18-57.28-18.69-9.54-37.64-18.63-55.95-28.9-4.07-2.29-7.67-2.12-11.76-.16-37.58,17.94-75.56,35-113.32,52.58-19,8.85-38,17.72-57.2,26.28-1.77.79-3.71,1.42-5.3,3.35,9.14,5.95,18.22,11.46,27.18,17.15,2,1.24,4.85,1.85,4.77,5.1-1.69,1.34-3.17.29-4.53-.54-10.84-6.67-21.76-13.19-32.51-20C774.54,422.51,773.06,421.64,772.69,419.82Z"/><path class="cls-3" d="M772.69,419.82q18.36,11.42,36.72,22.82c1.11.69,2.27,1.45,3.72,1.16l.68.17c4.29,2.26,8,5.65,12.79,6.94,11.27,5.78,21.64,13,32.4,19.66,28.06,17.26,56,34.76,84,52.12,2.89,1.79,6.39,2.95,8,6.42a23.07,23.07,0,0,1,1,7.84c0,33.64-.84,67.31.24,100.91,1.12,34.78.2,69.54.7,104.31,0,2.31.95,5.31-2.89,5.81l-22.21-16.61c-8.21-7.47-17.33-13.76-26.16-20.43-16.41-12.4-32.52-25.19-49-37.5-1.41-1.05-4.27-2.08-2.09-4.92,2.83-.16,4.53,1.94,6.46,3.4q42.36,31.83,84.8,63.53c1.57,1.18,3,2.57,4.82,3.23,1.29-1.06,1-2.31.94-3.41-.39-13.81.64-27.62-.78-41.45-.85-8.26-.18-16.65-.19-25,0-21.5.48-43-.14-64.49q-.93-32-.83-63.94a8.18,8.18,0,0,0-4.3-7.76c-29-18.08-58.11-35.93-87.1-54-26.86-16.76-53.91-33.2-80.65-50.16-2.12-2.48-3.52-5.11-1.62-8.37A.57.57,0,0,1,772.69,419.82Z"/><path class="cls-2" d="M850,668.92c5.53,6.51,13,10.6,19.63,15.8,18.44,14.52,37.1,28.76,55.64,43.16,1.15.88,2.44,1.8,2.6,3.49-17.76-13.17-35.55-26.29-53.26-39.52-28.25-21.11-56.36-42.4-84.75-63.3-4.8-3.54-6.68-7.44-5.92-13a6.67,6.67,0,0,1-.34-3.13c2.67-1,2.33,1.28,2.58,2.58.4,2.08.11,4.36,2.15,5.81,19.15,14.42,38.65,28.39,57.67,43C847.7,665.09,850.34,665.9,850,668.92Z"/><path class="cls-2" d="M784.14,611.88c-.07,1.22-.15,2.43-.22,3.64-1.78-10.5-1.94-21.15-2.76-31.74q-5.13-66.42-9.84-132.87c-.62-8.78-1.87-17.54-1.35-26.39.1-1.74-.54-3.82,2-4.4-.19,2.85.87,5.37,2,7.89,0,.23.07.46.11.69a31.12,31.12,0,0,1-.1,7.22c-.18,1.3,1,.86,1.32,1.4,1.14,1.79.86,3.68.51,5.6-1.5,9.33.71,18.54,1,27.81.22,7.75,1.05,15.54,1.54,23.31.77,12.24,1.42,24.51,2.28,36.74q2,28.28,3.68,56.57c.36,6.29,1.58,12.53,1.18,18.87C785.36,608.19,785.66,610.25,784.14,611.88Z"/><path class="cls-4" d="M1146.94,438.7c-1.63,24.4-3.23,47.78-4.74,71.17-.8,12.28-1.42,24.57-2.19,36.85-1.25,20.08-2.6,40.15-3.82,60.22-.54,8.8-1,17.61-1.22,26.43a7,7,0,0,1-3.75,6.45Q1046.07,690.55,961,741.42c-4.19,2.51-4.08.49-4.21-2.78-1.38-35.14-.15-70.3-1-105.44-.8-31-.53-62-.87-92.94,0-2.77.1-4.86,3.17-6.47q92.21-48.34,184.27-96.94C1147,434.36,1147.07,434.42,1146.94,438.7Z"/><path class="cls-4" d="M951,529.11Q889.68,491,828.4,453c-.7-.43-1.48-.74-2.22-1.1-4.46-2.51-8.88-5.1-13.08-8l0-.05c-9.49-7.05-19.92-12.61-29.81-19.05l-5.62-3.64c7.36-3.46,14.06-6.65,20.81-9.77q79.69-36.82,159.38-73.7a10,10,0,0,1,9.78.19q86.33,44.39,172.78,88.51c.59.3,1.15.65,2.72,1.55Z"/><path class="cls-5" d="M775,442.05c-.16-1.71.68-3.61-.92-5.06a17.39,17.39,0,0,1,0-9v0c7.49,2.91,13.76,7.91,20.5,12.07q74.41,45.9,148.68,92c2.59,1.6,4,3.32,3.92,6.71-.3,8.32-.29,16.66-.05,25,1.25,42.94.4,85.9,1.25,128.83.32,16.12.21,32.24.81,49.23-6.34-3.25-11-7.61-16.09-11.39q-40.65-30.36-81.18-60.88a6.41,6.41,0,0,0-1.86-.66c-7-6.85-15.32-12-23.06-17.91-12.89-9.83-26-19.4-39-29.08-2.16-3.42-2-7.46-2.18-11.14-.74-14.26-1.84-28.51-2.85-42.75-.88-12.22-1.73-24.46-2.65-36.69-.87-11.4-1.54-22.83-2.29-34.25-1-14.89-1.87-29.8-3.17-44.68C774.5,449,774.15,445.5,775,442.05Z"/><path class="cls-2" d="M813.1,443.85a51.48,51.48,0,0,1,13.08,8A28.67,28.67,0,0,1,813.1,443.85Z"/><path class="cls-6" d="M775,442.05c1,17.19,2.43,34.35,3.8,51.52.8,9.9,1.5,19.82,2.18,29.73,1.18,17.18,2.31,34.36,3.92,51.51,1,11.05,1.62,22.15,2.06,33.25.19,4.64,1.74,9.17,1,13.87-2.34-1.09-3.11-3-3-5.46.07-1.55.39-3.23-.82-4.58-.72-14.91-1.13-29.84-2.23-44.72-1.53-20.81-2.82-41.63-4-62.46-.9-15.2-2.34-30.37-3-45.6C774.67,453.41,772.84,447.74,775,442.05Z"/><path class="cls-3" d="M774,428l0,9C772.23,434,772.52,431,774,428Z"/><path class="cls-7" d="M962,736c0-23.71-.11-46.37.07-69,0-5.88,4.59-9.94,7.88-14.09,5.25-6.6,8.17-13.42,7.14-21.93a36.67,36.67,0,0,1,0-11c1.58-8.48-2.61-14.33-8.21-19.53-4.3-4-6.13-8.44-6.07-14.47.15-13.79-1.22-27.57-.94-41.39.07-3.67,1.29-5.73,4.5-7.42,16.75-8.87,33.42-17.9,50.07-27a4.54,4.54,0,0,1,5.08,0c2.69,1.64,5.73,2.8,8.21,4.7,4.17,3.2,7.63,2,12.2.28,11.51-4.27,19.18-11.47,21.12-23.69,1.56-9.92,9.1-13.55,16.65-17.4q30.46-15.56,61-31a13,13,0,0,1,2.29-.58c-.39,6.22-.68,12.15-1.14,18.06-.91,11.55-2,23.09-2.82,34.65-.4,5.62-1.16,11.2-1.21,16.88s-3.37,10.6-7.14,14.44c-7.87,8-8.06,18-8.66,28.07-.07,1.17.12,2.35,0,3.5-1.08,7.84.47,14.41,8.09,18.55,2.3,1.25,3.1,3.6,3,6.41q-1.14,25.13-2,50.27c-.07,1.93-1,2.93-2.53,3.91q-19.12,12.18-38.15,24.49c-2.39,1.54-4.2,1.3-5.95-1.08-2.65-3.6-5.71-6.91-8.25-10.59-1.5-2.16-2.86-2.34-5-1.2-8.93,4.83-17.86,9.64-26.85,14.32a6.27,6.27,0,0,0-3.58,4.89c-1.37,6.65-3.18,13.2-4.68,19.82a7.92,7.92,0,0,1-3.77,5.52C1009.12,707.45,986,721.49,962,736Z"/><path class="cls-7" d="M1134.51,427l-28.94,16.15c-8,4.46-16.1,8.68-23.85,13.5-6.46,4-12.94,2.13-19.31.83-8.36-1.72-16.09-2.5-23.72,2.94-5.36,3.83-11.55,6.6-17.58,9.38-3.27,1.51-4.56,3.5-4.14,7,.19,1.48,0,3,.08,4.49.62,8.88.67,9-7.19,12.76-19.15,9.31-38.33,18.53-57.49,27.83a4.87,4.87,0,0,1-5.46-.2Q920.62,505,894.09,488.73c-2.37-1.46-3.41-2.69-1.85-5.47,1.28-2.29,1.57-5.19,3-7.34,3.31-4.93,1.75-7.7-3.06-10.32-4.49-2.45-8.58-5.68-12.75-8.67a9.42,9.42,0,0,0-8.47-1.46c-7.05,1.84-14.17,3.43-21.25,5.13-2.15.51-4.16.71-6.22-.59q-29.64-18.81-59.33-37.55c-.24-.15-.34-.54-.63-1,7.69-4.66,16.11-7.78,24.14-11.66,12.11-5.86,24.46-11.25,36.63-17a17.57,17.57,0,0,1,8.13-1.87c7.3.16,14.53,1,21.77,1.86,4.63.56,9.17.52,13.51-2.06,4.57-2.71,9.48-4.85,14.24-7.24,8.53-4.31,9.57-5.45,7.77-14.64-.93-4.73.84-5.94,4.49-7.64q21.25-9.9,42.2-20.5c3.88-2,6.8-1.67,10.6.5,13.28,7.57,26.79,14.75,40.33,21.85,3.39,1.77,5.08,3.87,4.7,7.78-.46,4.81.93,8.46,5.86,10.85,6.1,3,11.78,6.79,17.61,10.32,2.83,1.71,5.83,1.11,8.73.68,4.41-.67,8.75-1.76,13.13-2.57,2.9-.54,5.51.27,8.13,1.62,18.66,9.58,37.37,19,56,28.55C1125.55,422.33,1129.5,424.43,1134.51,427Z"/><path class="cls-8" d="M941.86,581.79c3.23,10.49-2,19.21-11.38,26.23-2.76,2.08-3.44,4.8-3.59,8.24-.4,9.34,1.54,18.56,1.1,27.87-.18,4,3,6.18,4.85,9,2.27,3.46,5,6.59,7.55,9.88a12.62,12.62,0,0,1,2.69,8.27c-.19,12,0,24-.11,36-.09,7,1.73,13.86,1,20.87-.13,1.25.52,2.85-1.11,3.51-1.3.53-2.08-.63-3-1.29q-31.27-22.14-62.61-44.21a12.75,12.75,0,0,1-5.35-6.91c-1.3-4.29-3.45-8.43-4.09-12.8-2.17-15-15.18-19.32-25.21-26.63a3.22,3.22,0,0,0-3.31-.09c-1.54.61-3.19,1-4.74,1.54-12.45,4.75-12.38,4.69-22.36-3.56-5.36-4.43-10.89-8.67-16.47-12.82-3.87-2.88-5.67-6.28-5.88-11.34-.52-12.73-1.78-25.42-2.78-38.13-.28-3.41-.32-6.66,2.91-9,.93-.66,1.55-1.79,2.5-2.42,8.85-5.94,7.3-14.52,7.16-23.5-.19-11.15-8.09-17.38-13.3-25.34a17.63,17.63,0,0,1-3.22-8.15c-.88-11.39-1.4-22.82-2.13-34.23-.61-9.42-1.37-18.83-1.94-28.25-.08-1.36-.81-3.27.9-4,1.26-.55,2.4.73,3.53,1.41,18.7,11.11,37.36,22.27,56.15,33.23,2.68,1.56,4.39,3.4,5.09,6.31a2.6,2.6,0,0,0,.16.47c7,21,7.38,21.38,27,31.29a5.77,5.77,0,0,0,4.79.35,41.84,41.84,0,0,0,7-2.71c4.13-2.34,7.43-1.61,11.43.93,14.15,9,28.6,17.51,43,26.15,2.07,1.24,3.17,2.79,3,5.26C940.26,555.56,942.6,567.8,941.86,581.79Z"/><path class="cls-9" d="M967.59,726.32c-1-1.37-.57-2.73-.57-4,0-17.5,0-35-.07-52.5a10,10,0,0,1,2.13-6.93,8.58,8.58,0,0,1,.56-.83c16-14.76,12.59-34.13,12.33-52.67-.06-4.24-4.11-6.86-6.87-9.4-5.78-5.32-7.61-11.34-7.36-19,.35-11.29-.36-22.62-.79-33.93-.11-3.06.93-4.84,3.68-6.29Q993,529,1015.07,516.91c2.78-1.52,5.16-2.15,7.71,0,8.56,7.25,16.43,5.5,26.06.64,9.45-4.78,15.63-10.65,17.7-20.77,1.9-9.27,7.54-14.47,16.06-18.4,16.61-7.67,32.7-16.47,49-24.77,1.58-.8,3-2.06,5.27-1.93.59,7.52-.9,14.9-1.26,22.32-.51,10.6-2.11,21.16-2.48,31.77-.22,6.45-1.28,12.4-5.79,17-8.77,8.91-10.28,20-10.26,31.61a20,20,0,0,1,0,3c-1.42,9.35.39,17.4,8.88,22.92,2.08,1.36,2.19,3.53,2.09,5.79-.7,14.78-1.4,29.56-2,44.35a5,5,0,0,1-2.76,4.35c-10.69,6.77-21.4,13.5-32,20.42-2.32,1.51-3.76,1.32-5.38-.8-2.51-3.31-5.23-6.46-7.75-9.77-1.89-2.49-3.72-3.1-6.75-1.45q-15.57,8.48-31.45,16.36c-2.51,1.26-3.19,3.22-3.74,5.45-1.66,6.77-3.28,13.55-4.74,20.36a7.14,7.14,0,0,1-3.52,5q-29.33,17.6-58.58,35.3A9.39,9.39,0,0,1,967.59,726.32Z"/><path class="cls-9" d="M914.76,382.79c0-4.16.25-8.32.08-12.48-.11-2.66.64-4.2,3.19-5.41,13.39-6.32,26.71-12.8,40-19.32a6.78,6.78,0,0,1,7,.31q19.46,10.73,39.08,21.14a4.94,4.94,0,0,1,3,5.09c-.12,6.08,1.16,11.24,7.9,13.71a31.44,31.44,0,0,1,10.24,6.12c9.69,8.91,20.52,6,31.34,3.63a7.93,7.93,0,0,1,5.75.45q29.57,15.12,59.17,30.16a10.48,10.48,0,0,1,1.55,1.43c-7,3.91-13.68,7.71-20.43,11.46-7.85,4.36-15.82,8.53-23.55,13.11a13.1,13.1,0,0,1-9.54,1.46c-6.69-1.18-13.41-2.21-20.11-3.39-1.66-.29-2.93.43-4.23,1.12-10.15,5.38-20.26,10.82-30.44,16.14-2,1.06-3,2.38-2.81,4.71.21,3.49-.28,7.08.34,10.47s-.49,5-3.53,6.41q-27.3,12.94-54.38,26.32c-3.22,1.59-5.6,1.56-8.67-.41q-22.29-14.26-44.88-28c-3.2-1.94-3.31-3.71-1.89-6.78,1.85-4,5.62-8.59,4.21-12.32-1.27-3.37-6.46-5.33-10-7.74-5.51-3.7-10.76-9.16-16.81-10.33-5.83-1.13-12.7,1.7-18.79,3.75-7.36,2.47-13.23,1.47-19.77-3-14.09-9.7-28.86-18.42-43.24-27.48.08-2.13,1.74-2.22,2.79-2.72,16-7.45,32.06-14.71,48-22.31,5-2.38,9.93-2.2,15.08-1.71,6.11.58,12.24,1,18.34,1.75,4.38.52,8.08-.84,11.82-2.95,5.35-3,10.68-6.11,16.5-8.18.59,1.88-.85,2.68-2,3.62-1.92,1.6-3.53,3.53-5.36,5.22-14.16,13-12.14,39.65,3.81,51.73,15.08,11.42,32.21,16.24,50.73,17.14,16,.79,31.61-.87,46.49-7.16,9.31-3.93,17.52-9.24,24.12-17.22,8.09-9.77,8.36-33.5-2.92-44.3-13.26-12.69-29.16-18.08-46.6-20.56a107.76,107.76,0,0,0-56.3,7.1C917.63,383,916.25,384,914.76,382.79Z"/><path class="cls-10" d="M914.76,382.79a109.34,109.34,0,0,1,51.31-9.72c17.48.9,34.4,4.64,48.78,15.05,16.6,12,21.08,24.84,15,45.32-2.87,9.73-10.63,16.13-19.3,20.6-32.08,16.52-64.73,16.59-97.25,1.46-10.92-5.08-20.42-12.91-23.11-25.29-4.09-18.88-.18-28.75,14.33-40.92.88-.74,2-1.14,2.42-2.37Z"/><path class="cls-11" d="M785,448.81c11.42,6.73,21.85,12.85,32.26,19,6.14,3.64,12.22,7.39,18.39,11,2.44,1.41,4.25,3.19,4.78,6,2.59,13.77,9.51,24.11,23.07,29.21a2.81,2.81,0,0,1,.8.59c5.83,5.09,11.91,6.32,18.85,2,3.87-2.43,7.53-1.48,11.53,1.08,11.75,7.51,23.79,14.57,35.85,21.59,4,2.34,5.8,5.1,5.59,10-.58,13.63,1.43,27.22,1,40.88-.11,3-.52,5.64-3.1,7.41-10.4,7.13-13.75,17-12.05,29.22.9,6.55.78,13.25,1,19.88.1,2.39,1.72,3.93,2.93,5.65,3.16,4.47,6.57,8.76,9.77,13.19a10.32,10.32,0,0,1,2.41,6.36c-.13,15.32,0,30.65-.06,46,0,1.25.66,2.87-.78,3.65-1.26.68-2.09-.73-3-1.34q-27.54-19.25-55-38.56a7.17,7.17,0,0,1-2.56-4.12c-1.68-5.22-4-10.28-5.13-15.61-1.72-8.31-6.46-13.85-13.61-17.86a33.94,33.94,0,0,1-7.78-5.36c-5.73-5.87-11.68-5.37-18.16-1.61-5.44,3.17-10,2.83-14.94-2-5.53-5.4-12.26-9.58-18.53-14.21a7.9,7.9,0,0,1-3.59-6.64c-.44-13.25-1.34-26.47-2.84-39.65a4.76,4.76,0,0,1,1.5-4.52,11.75,11.75,0,0,1,1.07-1.05c11.9-7.66,10.67-18.88,9.9-31-.64-10.06-7.27-15.62-12.06-22.66A23.87,23.87,0,0,1,787.86,502c-.6-15.74-1.87-31.44-2.85-47.16C784.91,453.19,785,451.54,785,448.81Z"/><path class="cls-10" d="M1109,563.48c2.63,10.11-2.33,20-9.84,29.66a251.45,251.45,0,0,0-19.79,29.29c-5.06,8.8-12.81,13.55-21.22,18-6.46,3.42-12.86,7-19.21,10.61a6.67,6.67,0,0,1-6.5.37c-11.69-4.77-23.47-9.31-35.26-13.82-3-1.14-4.09-2.8-4.41-6.2-.57-6-.21-12-.88-17.9-1.14-10,2.19-18.28,7.58-26.52,11.28-17.22,21.91-34.88,32.77-52.38a12.92,12.92,0,0,1,6.59-5.61c7.43-2.88,14.74-6.09,22-9.38a9.16,9.16,0,0,1,9.34.41c12,7.18,24,14.16,36.12,21.17,2.15,1.25,2.8,3,2.74,5.41C1108.92,551.41,1109,556.25,1109,563.48Z"/><path class="cls-12" d="M899.82,399.76c1.18-5.83,5.66-8.83,10.27-11.49,8.3-4.79,17.45-7.28,26.84-8.71,21.62-3.27,43-2.74,63.91,4.52a47.57,47.57,0,0,1,12.82,6.52c4.8,3.57,7.94,8,7.2,14.39-.8,5.49-4.57,8.69-8.92,11.33-9.13,5.52-19.23,8.42-29.66,9.79-16.38,2.16-32.83,2.3-49.15-.85-9-1.74-17.72-4.49-25.67-9.29C901.3,412.25,898.08,407.19,899.82,399.76Z"/><path class="cls-13" d="M899.82,399.76c-.8,11.75,7.92,15.65,16.43,19.07,19.74,7.93,40.35,8.32,61.23,6.37a100.82,100.82,0,0,0,26-6.2c7.34-2.74,13.64-6.81,17.4-14,.28,9.3.94,18.6-.65,27.86-.9,5.26-3.76,9-8,12.11-10.57,7.62-22.5,11.37-35.29,12.54-22.46,2.07-44.13-.38-64.3-11.52-6.89-3.81-11.43-8.9-12.12-17C899.66,419.24,898,409.54,899.82,399.76Z"/><path class="cls-14" d="M916.14,615.87c.75,4.74-1.23,11.45-1.12,18.25,0,2.33-1.29,3.24-3.21,3.76l-36.47,9.88a4.69,4.69,0,0,1-3.83-.54c-.71-.43-1.43-.86-2.12-1.32-9.81-6.53-21.33-11.53-28.95-20s-11.1-20.29-16.35-30.68c-4.51-8.92-8.9-17.89-13.41-26.8-1.08-2.13-2.12-4.26-1.63-6.65,1.8-8.75.75-17.58.86-26.37,0-3.49,1.31-5.42,4.3-7.05,9.47-5.17,18.81-10.59,28.16-16,2.69-1.55,4.89-2.38,8.07-.31a199.82,199.82,0,0,0,19.14,10.69c3.77,1.89,5.37,5.23,7.24,8.54,12.11,21.38,24.08,42.85,36.46,64.07C916.78,601.34,915.68,607.54,916.14,615.87Z"/><path class="cls-15" d="M1104,561.65c2.48,11-2.28,19.48-8.52,28-8.48,11.53-16.21,23.6-24.17,35.5a15.55,15.55,0,0,1-5.74,5.33q-13.63,7.31-27.1,14.95a6.62,6.62,0,0,1-6.48.49c-10.16-4.15-20.34-8.23-30.61-12.09-2.83-1.06-4-2.56-3.74-5.49a25.58,25.58,0,0,0-.3-4c-1.38-21.61-1.4-21.63,10-40,9.57-15.42,19.23-30.78,28.76-46.22a11.09,11.09,0,0,1,5.51-4.74c6.93-2.81,13.86-5.65,20.67-8.73a6.18,6.18,0,0,1,6.44.45c10.27,6.17,20.57,12.31,31,18.18,3.14,1.76,4.65,3.71,4.3,7.41S1104,558,1104,561.65Z"/><path class="cls-16" d="M905.45,394.64c-2.41,9.78,3.25,14.34,9.55,19C904.74,412.14,898,401.91,905.45,394.64Z"/><path class="cls-17" d="M1004.88,389c12,2.81,16.68,12.06,10.19,20.14C1017.16,399.53,1012.5,394,1004.88,389Z"/><path class="cls-18" d="M814.92,550.74a16.66,16.66,0,0,0,0-2.12c-2.53-11.79,3-18.46,13.59-22.59,5.37-2.09,10.26-5.49,15.24-8.5,2.32-1.41,4.28-1.46,6.35.2a1.37,1.37,0,0,0,.42.27c17,5.79,25.07,19.94,32.84,34.66,8,15.14,16.77,29.88,25.26,44.76a16.13,16.13,0,0,1,2.45,9c-.31,7.64.05,15.29-.83,22.93-.32,2.83-1.23,4.1-3.89,4.78-9.8,2.51-19.56,5.2-29.35,7.77a7.06,7.06,0,0,1-6.1-1.21c-8.39-5.7-16.89-11.25-25.36-16.83a12.71,12.71,0,0,1-4.29-5.39q-12.45-25.3-24.94-50.59C813.38,561.92,815.71,555.66,814.92,550.74Z"/></svg>